<svg width="169" height="61" viewBox="0 0 169 61" fill="none" xmlns="http://www.w3.org/2000/svg">
<rect x="1.12222" y="1.12222" width="166.756" height="58.7556" rx="9.37778" fill="#2C2D35" stroke="#43454B" stroke-width="1.24444"/>
<path fill-rule="evenodd" clip-rule="evenodd" d="M27.1565 13.9746C21.3053 13.9746 19.167 16.2672 19.167 22.5318V35.9242C19.167 42.1873 21.3067 44.4813 27.1565 44.4813H39.6476C45.496 44.4813 47.6399 42.1888 47.6399 35.9242V22.5318C47.6399 16.2687 45.5002 13.9746 39.6505 13.9746H27.1565Z" fill="#DA0025"/>
<path fill-rule="evenodd" clip-rule="evenodd" d="M31.5871 31.6718H32.7304L32.1566 30.2425L31.5871 31.6718ZM31.3053 32.3917L30.9664 33.223H30.1948L31.8363 29.2312H32.504L34.1383 33.223H33.3468L33.0108 32.3917H31.3053ZM43.7308 33.2199H44.4769V29.2312H43.7308V33.2199ZM40.7598 31.507H42.135V30.7794H40.7598V29.9618H42.7571V29.2343H40.0137V33.223H42.8283V32.4955H40.7598V31.507ZM37.7943 31.9768L36.9486 29.2312H36.3322L35.4851 31.9768L34.6623 29.2327H33.8565L35.1563 33.2245H35.7827L36.6298 30.6025L37.4768 33.226H38.1089L39.4045 29.2327H38.6214L37.7957 31.9783L37.7943 31.9768ZM29.0545 31.5177C29.0545 32.1659 28.7541 32.5137 28.2074 32.5137C27.6579 32.5137 27.3561 32.1568 27.3561 31.4902V29.2312H26.5987V31.5192C26.5987 32.6419 27.1824 33.2871 28.1975 33.2871C29.2225 33.2871 29.8105 32.6311 29.8105 31.4856V29.2312H29.0559V31.5192L29.0545 31.5177ZM24.7949 29.2312H25.5495V33.2245H24.7949V31.6031H23.0866V33.2245H22.332V29.2312H23.0866V30.8419H24.7949V29.2312ZM33.4037 24.1472C30.7871 24.1472 28.6587 21.8653 28.6587 19.0618H29.3278C29.3278 21.4703 31.1572 23.4288 33.4037 23.4288C35.6502 23.4288 37.4797 21.4703 37.4797 19.0618H38.1488C38.1488 21.8653 36.0204 24.1472 33.4037 24.1472Z" fill="white"/>
<path d="M59.9637 14.1073C61.096 14.1073 61.9936 14.4994 62.6564 15.2835C63.3227 16.0677 63.6559 17.1308 63.6559 18.4728C63.6559 19.8149 63.3244 20.878 62.6618 21.6622C61.9991 22.4424 61.0997 22.8325 59.9637 22.8325C58.8275 22.8325 57.9282 22.4424 57.2656 21.6622C56.6028 20.878 56.2715 19.8149 56.2715 18.4728C56.2715 17.1308 56.6028 16.0677 57.2656 15.2835C57.9282 14.4994 58.8275 14.1073 59.9637 14.1073ZM59.9637 15.2601C59.2135 15.2601 58.6182 15.5488 58.1777 16.1262C57.7407 16.7036 57.5223 17.4858 57.5223 18.4728C57.5223 19.456 57.7407 20.2362 58.1777 20.8136C58.6182 21.391 59.2135 21.6797 59.9637 21.6797C60.7101 21.6797 61.3017 21.391 61.7388 20.8136C62.1793 20.2362 62.3996 19.456 62.3996 18.4728C62.3996 17.4858 62.1793 16.7036 61.7388 16.1262C61.3017 15.5488 60.7101 15.2601 59.9637 15.2601ZM69.1559 16.5358V17.5366H67.3535V22.6921H66.1791V17.5366H64.3769V16.5358H69.1559ZM72.3511 19.4267L74.9947 22.6921H73.5145L71.2369 19.8539H71.1932V22.6921H70.0189V16.5358H71.1932V19.1692H71.2369L73.4872 16.5358H74.8963L72.3511 19.4267ZM78.7304 16.4363C79.4623 16.4363 80.0485 16.7231 80.4892 17.2966C80.9298 17.8701 81.1501 18.6425 81.1501 19.614C81.1501 20.5854 80.9317 21.3598 80.4947 21.9372C80.0577 22.5107 79.477 22.7974 78.7523 22.7974C78.3444 22.7974 77.9823 22.698 77.6654 22.499C77.3523 22.3 77.112 22.0269 76.9445 21.6797H76.9172V24.7286H75.7374V16.5358H76.8789V17.5951H76.9008C77.072 17.2362 77.3178 16.9532 77.6382 16.7465C77.9585 16.5397 78.3228 16.4363 78.7304 16.4363ZM78.4192 21.7266C78.8852 21.7266 79.2548 21.5373 79.5279 21.1589C79.801 20.7766 79.9376 20.2616 79.9376 19.614C79.9376 18.9703 79.801 18.4572 79.5279 18.0749C79.2548 17.6926 78.8852 17.5014 78.4192 17.5014C77.9676 17.5014 77.6036 17.6945 77.3268 18.0808C77.0501 18.467 76.9117 18.978 76.9117 19.614C76.9117 20.2537 77.0482 20.7668 77.3214 21.153C77.5981 21.5353 77.964 21.7266 78.4192 21.7266ZM86.6228 21.9547C86.1277 22.5243 85.4668 22.8091 84.6401 22.8091C83.8136 22.8091 83.1527 22.5243 82.6575 21.9547C82.1623 21.3813 81.9148 20.601 81.9148 19.614C81.9148 18.6309 82.1623 17.8545 82.6575 17.2849C83.1527 16.7114 83.8136 16.4247 84.6401 16.4247C85.4668 16.4247 86.1277 16.7114 86.6228 17.2849C87.118 17.8545 87.3656 18.6309 87.3656 19.614C87.3656 20.601 87.118 21.3813 86.6228 21.9547ZM84.6401 21.7675C85.1098 21.7675 85.4813 21.5783 85.7544 21.1999C86.0275 20.8214 86.1641 20.2928 86.1641 19.614C86.1641 18.939 86.0256 18.4123 85.749 18.0339C85.4758 17.6555 85.1063 17.4663 84.6401 17.4663C84.1741 17.4663 83.8028 17.6555 83.526 18.0339C83.2529 18.4123 83.1164 18.939 83.1164 19.614C83.1164 20.2928 83.2529 20.8214 83.526 21.1999C83.8028 21.5783 84.1741 21.7675 84.6401 21.7675ZM89.5449 22.6921H88.3815V16.5358H89.5449V20.8487H89.5885L92.243 16.5358H93.4064V22.6921H92.243V18.3675H92.1994L89.5449 22.6921ZM89.1626 13.8323H89.9601C89.9636 14.1677 90.0583 14.4467 90.2441 14.669C90.4298 14.8876 90.6736 14.9968 90.9759 14.9968C91.2817 14.9968 91.5275 14.8876 91.7133 14.669C91.899 14.4467 91.9936 14.1677 91.9972 13.8323H92.7947C92.7947 14.3862 92.6272 14.8349 92.2921 15.1782C91.9572 15.5176 91.5184 15.6873 90.9759 15.6873C90.437 15.6873 90.0001 15.5176 89.665 15.1782C89.3301 14.8349 89.1626 14.3862 89.1626 13.8323ZM99.043 16.5358V17.5366H97.2406V22.6921H96.0664V17.5366H94.2639V16.5358H99.043ZM103.205 17.8876C102.946 17.5911 102.613 17.4429 102.205 17.4429C101.798 17.4429 101.459 17.5931 101.19 17.8935C100.92 18.1899 100.771 18.5742 100.742 19.0463H103.615C103.6 18.5704 103.463 18.1842 103.205 17.8876ZM103.609 20.8838H104.729C104.645 21.4495 104.376 21.9119 103.92 22.2708C103.465 22.6297 102.91 22.8091 102.255 22.8091C101.414 22.8091 100.751 22.5263 100.266 21.9606C99.7859 21.391 99.5455 20.6185 99.5455 19.6433C99.5455 18.6757 99.7859 17.8974 100.266 17.3083C100.751 16.7192 101.397 16.4247 102.205 16.4247C102.999 16.4247 103.629 16.7036 104.095 17.2614C104.561 17.8155 104.794 18.5606 104.794 19.4969V19.9299H100.736V20.0061C100.736 20.5444 100.876 20.9755 101.157 21.2994C101.437 21.6232 101.812 21.7851 102.282 21.7851C102.613 21.7851 102.897 21.7031 103.134 21.5393C103.371 21.3754 103.529 21.1569 103.609 20.8838ZM110.448 17.4546H109.24V19.0697H110.333C110.999 19.0697 111.332 18.7966 111.332 18.2504C111.332 17.9969 111.256 17.8019 111.103 17.6652C110.95 17.5248 110.731 17.4546 110.448 17.4546ZM110.409 19.9533H109.24V21.7733H110.54C110.875 21.7733 111.13 21.6972 111.305 21.5451C111.48 21.389 111.567 21.1628 111.567 20.8663C111.567 20.2576 111.181 19.9533 110.409 19.9533ZM108.077 22.6921V16.5358H110.688C111.248 16.5358 111.687 16.6763 112.003 16.9571C112.325 17.2342 112.485 17.6165 112.485 18.1042C112.485 18.4241 112.39 18.7128 112.201 18.9703C112.015 19.2238 111.784 19.378 111.507 19.4326V19.4794C111.878 19.534 112.176 19.692 112.403 19.9533C112.629 20.2109 112.742 20.5328 112.742 20.919C112.742 21.4613 112.559 21.8924 112.195 22.2123C111.835 22.5321 111.344 22.6921 110.72 22.6921H108.077Z" fill="white"/>
<path d="M64.3229 43.3929L63.2235 39.8211H58.4777L57.3783 43.3929H55.001L59.5769 29.5749H62.1778L66.7538 43.3929H64.3229ZM60.8193 32.0167L59.0139 37.9155H62.6783L60.8819 32.0167H60.8193ZM73.1173 33.0701C74.3209 33.0701 75.2773 33.5393 75.9863 34.4777C76.6954 35.4162 77.0499 36.6961 77.0499 38.3177C77.0499 39.9328 76.6983 41.2096 75.9953 42.148C75.2922 43.0865 74.3448 43.5557 73.1531 43.5557C72.4738 43.5557 71.8751 43.3929 71.3566 43.0674C70.8383 42.7354 70.448 42.2821 70.1858 41.7076H70.1412V46.735H67.9157V33.2424H70.0875V34.9949H70.1323C70.4063 34.3948 70.8026 33.9255 71.3208 33.5871C71.8393 33.2424 72.4381 33.0701 73.1173 33.0701ZM72.4381 41.6022C73.1591 41.6022 73.728 41.3085 74.1452 40.7213C74.5622 40.1275 74.7708 39.3264 74.7708 38.3177C74.7708 37.3154 74.5593 36.5175 74.1363 35.9236C73.7191 35.33 73.1531 35.0331 72.4381 35.0331C71.747 35.0331 71.1898 35.3331 70.7668 35.9332C70.3438 36.5333 70.1292 37.3281 70.1233 38.3177C70.1292 39.3137 70.3438 40.1116 70.7668 40.7117C71.1898 41.3054 71.747 41.6022 72.4381 41.6022ZM83.6815 33.0701C84.8851 33.0701 85.8413 33.5393 86.5505 34.4777C87.2595 35.4162 87.614 36.6961 87.614 38.3177C87.614 39.9328 87.2624 41.2096 86.5594 42.148C85.8563 43.0865 84.9089 43.5557 83.7172 43.5557C83.038 43.5557 82.4392 43.3929 81.9208 43.0674C81.4025 42.7354 81.0121 42.2821 80.75 41.7076H80.7053V46.735H78.4799V33.2424H80.6517V34.9949H80.6964C80.9705 34.3948 81.3667 33.9255 81.885 33.5871C82.4035 33.2424 83.0022 33.0701 83.6815 33.0701ZM83.0022 41.6022C83.7232 41.6022 84.2922 41.3085 84.7093 40.7213C85.1264 40.1275 85.335 39.3264 85.335 38.3177C85.335 37.3154 85.1235 36.5175 84.7005 35.9236C84.2833 35.33 83.7172 35.0331 83.0022 35.0331C82.3111 35.0331 81.754 35.3331 81.331 35.9332C80.9079 36.5333 80.6933 37.3281 80.6875 38.3177C80.6933 39.3137 80.9079 40.1116 81.331 40.7117C81.754 41.3054 82.3111 41.6022 83.0022 41.6022ZM104.22 37.6282C104.22 39.505 103.722 40.9734 102.727 42.0332C101.738 43.0929 100.362 43.6227 98.5983 43.6227C96.7154 43.6227 95.2258 42.9811 94.1295 41.698C93.0392 40.4083 92.4939 38.6528 92.4939 36.4313C92.4939 34.2415 93.0361 32.5146 94.1205 31.2507C95.2109 29.9803 96.6885 29.345 98.5536 29.345C100.019 29.345 101.262 29.7695 102.28 30.6187C103.299 31.4677 103.913 32.5849 104.122 33.9702H101.78C101.56 33.1786 101.166 32.5594 100.6 32.1125C100.034 31.6656 99.3549 31.4421 98.5625 31.4421C97.4006 31.4421 96.492 31.8794 95.8365 32.7541C95.1811 33.6287 94.8534 34.8448 94.8534 36.4025C94.8534 37.9921 95.1901 39.2434 95.8633 40.1563C96.5426 41.0692 97.4631 41.5256 98.6251 41.5256C99.5963 41.5256 100.389 41.2255 101.002 40.6255C101.622 40.0254 101.941 39.2402 101.959 38.2698L101.968 38.04H98.8574V36.1536H104.22V37.6282ZM109.288 41.7554C109.925 41.7554 110.461 41.5543 110.896 41.1522C111.337 40.7436 111.557 40.236 111.557 39.6296V38.854L109.368 38.9976C108.832 39.0359 108.415 39.1795 108.117 39.4284C107.825 39.6711 107.679 39.9935 107.679 40.3956C107.679 40.8106 107.825 41.1426 108.117 41.3915C108.415 41.6341 108.805 41.7554 109.288 41.7554ZM108.617 43.5557C107.694 43.5557 106.934 43.2717 106.338 42.7035C105.748 42.1353 105.453 41.3979 105.453 40.4914C105.453 39.5912 105.763 38.8794 106.383 38.356C107.009 37.8325 107.899 37.5324 109.055 37.4558L111.557 37.3027V36.5749C111.557 36.0451 111.4 35.6332 111.084 35.3396C110.774 35.046 110.342 34.8991 109.788 34.8991C109.27 34.8991 108.847 35.0236 108.519 35.2726C108.191 35.5215 107.992 35.8598 107.92 36.2875H105.856C105.903 35.3236 106.288 34.5417 107.009 33.9414C107.735 33.3351 108.692 33.0318 109.877 33.0318C111.051 33.0318 111.989 33.3382 112.693 33.951C113.402 34.564 113.757 35.3811 113.757 36.4025V43.3929H111.611V41.7745H111.566C111.299 42.3173 110.893 42.7513 110.351 43.0769C109.809 43.3961 109.231 43.5557 108.617 43.5557ZM115.616 43.3929V29.5749H117.84V43.3929H115.616ZM119.798 43.3929V29.5749H122.023V43.3929H119.798ZM128.003 34.8799C127.383 34.8799 126.864 35.1097 126.448 35.5693C126.037 36.0227 125.807 36.6068 125.759 37.3218H130.184C130.159 36.6003 129.947 36.0131 129.549 35.5597C129.149 35.1065 128.634 34.8799 128.003 34.8799ZM130.193 40.3574H132.275C132.132 41.3213 131.676 42.1034 130.907 42.7035C130.139 43.2971 129.197 43.5941 128.083 43.5941C126.665 43.5941 125.551 43.1279 124.74 42.1959C123.93 41.2575 123.525 39.9774 123.525 38.356C123.525 36.7472 123.928 35.4577 124.732 34.4873C125.541 33.5169 126.629 33.0318 127.994 33.0318C129.335 33.0318 130.398 33.4946 131.184 34.4202C131.972 35.3396 132.363 36.5717 132.363 38.1166V38.8922H125.742V39.0359C125.742 39.8531 125.956 40.5106 126.386 41.0084C126.82 41.5065 127.401 41.7554 128.128 41.7554C128.64 41.7554 129.081 41.631 129.45 41.3819C129.825 41.1265 130.072 40.7851 130.193 40.3574ZM133.803 43.3929V33.2424H135.939V35.0141H135.984C136.145 34.3948 136.422 33.916 136.814 33.5775C137.215 33.2393 137.695 33.0701 138.253 33.0701C138.451 33.0701 138.682 33.102 138.951 33.1658V35.3204C138.731 35.2311 138.429 35.1864 138.048 35.1864C137.416 35.1864 136.922 35.3907 136.564 35.7993C136.207 36.2078 136.028 36.7695 136.028 37.4845V43.3929H133.803ZM141.15 47.1659C140.667 47.1659 140.375 47.1531 140.274 47.1275V45.2411C140.375 45.2666 140.589 45.2793 140.918 45.2793C141.377 45.2793 141.734 45.1772 141.989 44.9729C142.246 44.7686 142.437 44.4335 142.562 43.9674C142.562 43.9611 142.583 43.8685 142.625 43.6898C142.672 43.511 142.694 43.4153 142.687 43.4025L139.318 33.2424H141.749L143.982 41.3627H144.018L146.254 33.2424H148.594L145.171 43.795C144.767 45.0527 144.266 45.9273 143.671 46.4189C143.074 46.9169 142.234 47.1659 141.15 47.1659Z" fill="white"/>
</svg>
