<svg width="181" height="61" viewBox="0 0 181 61" fill="none" xmlns="http://www.w3.org/2000/svg">
<rect x="1.2" y="1.2" width="178.6" height="58.6" rx="9.3" fill="#2C2D35"/>
<rect x="1.2" y="1.2" width="178.6" height="58.6" rx="9.3" stroke="#43454B" stroke-width="1.4"/>
<path d="M122.789 29.3014V32.7379H120.635V34.9916H122.789V42.6491C122.789 45.2638 123.972 46.3097 126.947 46.3097C127.47 46.3097 127.968 46.2475 128.404 46.1728V43.944C128.031 43.9813 127.794 44.0062 127.383 44.0062C126.051 44.0062 125.466 43.3837 125.466 41.9643V34.9916H128.404V32.7379H125.466V29.3014H122.789Z" fill="white"/>
<path d="M135.985 46.4965C139.945 46.4965 142.372 43.8444 142.372 39.4491C142.372 35.0788 139.932 32.4142 135.985 32.4142C132.026 32.4142 129.585 35.0788 129.585 39.4491C129.585 43.8444 132.013 46.4965 135.985 46.4965ZM135.985 44.1183C133.657 44.1183 132.349 42.4125 132.349 39.4491C132.349 36.5106 133.657 34.7924 135.985 34.7924C138.301 34.7924 139.621 36.5106 139.621 39.4491C139.621 42.4 138.301 44.1183 135.985 44.1183Z" fill="white"/>
<path d="M144.45 46.235H147.127V38.2289C147.127 36.3239 148.559 35.0414 150.588 35.0414C151.061 35.0414 151.858 35.1286 152.082 35.2033V32.5636C151.796 32.4889 151.286 32.4516 150.887 32.4516C149.119 32.4516 147.612 33.4228 147.226 34.755H147.027V32.6757H144.45V46.235Z" fill="white"/>
<path d="M158.729 34.6928C160.709 34.6928 162.004 36.0749 162.066 38.204H155.218C155.368 36.0873 156.75 34.6928 158.729 34.6928ZM162.054 42.5744C161.556 43.6327 160.448 44.2179 158.829 44.2179C156.687 44.2179 155.305 42.7113 155.218 40.3332V40.1837H164.793V39.2499C164.793 34.9916 162.515 32.4142 158.742 32.4142C154.919 32.4142 152.491 35.1659 152.491 39.4989C152.491 43.8319 154.869 46.4965 158.754 46.4965C161.855 46.4965 164.021 45.0023 164.631 42.5744H162.054Z" fill="white"/>
<path d="M105.233 41.2278C105.44 44.5573 108.215 46.6867 112.344 46.6867C116.758 46.6867 119.52 44.4541 119.52 40.8922C119.52 38.0918 117.945 36.5431 114.125 35.6527L112.073 35.1494C109.647 34.5815 108.666 33.8201 108.666 32.4909C108.666 30.8132 110.189 29.7163 112.473 29.7163C114.641 29.7163 116.138 30.7874 116.409 32.5038H119.223C119.055 29.3678 116.293 27.161 112.512 27.161C108.447 27.161 105.737 29.3678 105.737 32.6845C105.737 35.4204 107.272 37.0465 110.641 37.8337L113.041 38.4144C115.506 38.9951 116.59 39.8469 116.59 41.2665C116.59 42.9184 114.887 44.1185 112.564 44.1185C110.073 44.1185 108.344 42.9958 108.098 41.2278H105.233Z" fill="white"/>
<path d="M77.5024 32.4516C75.6596 32.4516 74.0659 33.3729 73.2441 34.9169H73.0449V32.6757H70.4675V50.7423H73.1445V44.1806H73.3562C74.0659 45.6124 75.5974 46.4591 77.5273 46.4591C80.9514 46.4591 83.1304 43.7572 83.1304 39.4491C83.1304 35.141 80.9514 32.4516 77.5024 32.4516ZM76.7429 44.0561C74.5017 44.0561 73.0947 42.288 73.0947 39.4616C73.0947 36.6227 74.5017 34.8546 76.7554 34.8546C79.0215 34.8546 80.3786 36.5853 80.3786 39.4491C80.3786 42.3253 79.0215 44.0561 76.7429 44.0561Z" fill="white"/>
<path d="M92.4976 32.4516C90.6548 32.4516 89.0611 33.3729 88.2393 34.9169H88.0401V32.6757H85.4627V50.7423H88.1397V44.1806H88.3514C89.0611 45.6124 90.5926 46.4591 92.5225 46.4591C95.9466 46.4591 98.1255 43.7572 98.1255 39.4491C98.1255 35.141 95.9466 32.4516 92.4976 32.4516ZM91.7381 44.0561C89.4969 44.0561 88.0899 42.288 88.0899 39.4616C88.0899 36.6227 89.4969 34.8546 91.7505 34.8546C94.0167 34.8546 95.3738 36.5853 95.3738 39.4491C95.3738 42.3253 94.0167 44.0561 91.7381 44.0561Z" fill="white"/>
<path d="M65.6645 46.235H68.736L62.0123 27.6127H58.9021L52.1785 46.235H55.1467L56.8631 41.2923H63.961L65.6645 46.235ZM60.3088 30.9939H60.5282L63.2254 38.8661H57.5987L60.3088 30.9939Z" fill="white"/>
<path d="M53.9767 13.5664V22.5499H57.2202C59.8972 22.5499 61.4474 20.9001 61.4474 18.0302C61.4474 15.2037 59.8848 13.5664 57.2202 13.5664H53.9767ZM55.3712 14.8364H57.0646C58.926 14.8364 60.028 16.0193 60.028 18.0488C60.028 20.1095 58.9447 21.2799 57.0646 21.2799H55.3712V14.8364Z" fill="white"/>
<path d="M66.195 22.6807C68.1748 22.6807 69.3887 21.3546 69.3887 19.157C69.3887 16.9718 68.1685 15.6395 66.195 15.6395C64.2153 15.6395 62.9951 16.9718 62.9951 19.157C62.9951 21.3546 64.2091 22.6807 66.195 22.6807ZM66.195 21.4916C65.0308 21.4916 64.3771 20.6387 64.3771 19.157C64.3771 17.6877 65.0308 16.8286 66.195 16.8286C67.353 16.8286 68.0129 17.6877 68.0129 19.157C68.0129 20.6324 67.353 21.4916 66.195 21.4916Z" fill="white"/>
<path d="M79.727 15.7703H78.3885L77.1807 20.9437H77.0749L75.6803 15.7703H74.3979L73.0033 20.9437H72.9037L71.6897 15.7703H70.3325L72.2002 22.5499H73.5761L74.9706 17.557H75.0764L76.4772 22.5499H77.8655L79.727 15.7703Z" fill="white"/>
<path d="M81.2684 22.5499H82.6069V18.5842C82.6069 17.5259 83.2357 16.866 84.2256 16.866C85.2154 16.866 85.6886 17.4076 85.6886 18.4971V22.5499H87.0271V18.1609C87.0271 16.5485 86.1928 15.6395 84.68 15.6395C83.659 15.6395 82.9867 16.094 82.6567 16.8473H82.5571V15.7703H81.2684V22.5499Z" fill="white"/>
<path d="M89.1351 22.5499H90.4736V13.1244H89.1351V22.5499Z" fill="white"/>
<path d="M95.5076 22.6807C97.4873 22.6807 98.7013 21.3546 98.7013 19.157C98.7013 16.9718 97.4811 15.6395 95.5076 15.6395C93.5278 15.6395 92.3076 16.9718 92.3076 19.157C92.3076 21.3546 93.5216 22.6807 95.5076 22.6807ZM95.5076 21.4916C94.3434 21.4916 93.6897 20.6387 93.6897 19.157C93.6897 17.6877 94.3434 16.8286 95.5076 16.8286C96.6655 16.8286 97.3254 17.6877 97.3254 19.157C97.3254 20.6324 96.6655 21.4916 95.5076 21.4916Z" fill="white"/>
<path d="M102.689 21.5352C101.961 21.5352 101.432 21.1803 101.432 20.5702C101.432 19.9725 101.855 19.655 102.789 19.5928L104.445 19.4869V20.0535C104.445 20.8939 103.698 21.5352 102.689 21.5352ZM102.347 22.662C103.237 22.662 103.978 22.276 104.383 21.5974H104.489V22.5499H105.777V17.9181C105.777 16.4862 104.819 15.6395 103.119 15.6395C101.581 15.6395 100.486 16.3866 100.349 17.5508H101.644C101.793 17.0714 102.31 16.7975 103.057 16.7975C103.972 16.7975 104.445 17.2021 104.445 17.9181V18.5033L102.608 18.6091C100.996 18.7087 100.087 19.4122 100.087 20.6324C100.087 21.8713 101.04 22.662 102.347 22.662Z" fill="white"/>
<path d="M110.319 22.662C111.253 22.662 112.044 22.22 112.449 21.4791H112.554V22.5499H113.837V13.1244H112.498V16.8473H112.399C112.032 16.1002 111.247 15.6582 110.319 15.6582C108.607 15.6582 107.506 17.0154 107.506 19.157C107.506 21.3048 108.595 22.662 110.319 22.662ZM110.699 16.8597C111.82 16.8597 112.523 17.75 112.523 19.1632C112.523 20.5826 111.826 21.4604 110.699 21.4604C109.566 21.4604 108.888 20.5951 108.888 19.157C108.888 17.7313 109.572 16.8597 110.699 16.8597Z" fill="white"/>
<path d="M122.517 22.6807C124.496 22.6807 125.71 21.3546 125.71 19.157C125.71 16.9718 124.49 15.6395 122.517 15.6395C120.537 15.6395 119.317 16.9718 119.317 19.157C119.317 21.3546 120.531 22.6807 122.517 22.6807ZM122.517 21.4916C121.352 21.4916 120.699 20.6387 120.699 19.157C120.699 17.6877 121.352 16.8286 122.517 16.8286C123.675 16.8286 124.335 17.6877 124.335 19.157C124.335 20.6324 123.675 21.4916 122.517 21.4916Z" fill="white"/>
<path d="M127.482 22.5499H128.821V18.5842C128.821 17.5259 129.449 16.866 130.439 16.866C131.429 16.866 131.902 17.4076 131.902 18.4971V22.5499H133.241V18.1609C133.241 16.5485 132.407 15.6395 130.894 15.6395C129.873 15.6395 129.2 16.094 128.87 16.8473H128.771V15.7703H127.482V22.5499Z" fill="white"/>
<path d="M139.405 14.0831V15.8014H138.328V16.9282H139.405V20.757C139.405 22.0643 139.997 22.5873 141.485 22.5873C141.746 22.5873 141.995 22.5562 142.213 22.5188V21.4044C142.026 21.4231 141.908 21.4355 141.703 21.4355C141.037 21.4355 140.744 21.1243 140.744 20.4146V16.9282H142.213V15.8014H140.744V14.0831H139.405Z" fill="white"/>
<path d="M144.01 22.5499H145.348V18.5905C145.348 17.5632 145.958 16.8722 147.054 16.8722C148 16.8722 148.505 17.42 148.505 18.5033V22.5499H149.843V18.1733C149.843 16.5609 148.953 15.6458 147.509 15.6458C146.488 15.6458 145.772 16.1002 145.442 16.8597H145.336V13.1244H144.01V22.5499Z" fill="white"/>
<path d="M154.672 16.7788C155.662 16.7788 156.309 17.4698 156.34 18.5344H152.916C152.991 17.4761 153.682 16.7788 154.672 16.7788ZM156.334 20.7196C156.085 21.2488 155.531 21.5414 154.722 21.5414C153.651 21.5414 152.96 20.7881 152.916 19.599V19.5243H157.704V19.0574C157.704 16.9282 156.564 15.6395 154.678 15.6395C152.767 15.6395 151.553 17.0154 151.553 19.1819C151.553 21.3484 152.742 22.6807 154.684 22.6807C156.234 22.6807 157.318 21.9336 157.623 20.7196H156.334Z" fill="white"/>
<path d="M37.6535 30.9512C37.686 28.4297 39.0401 26.0438 41.1883 24.7231C39.8331 22.7877 37.5632 21.5605 35.2016 21.4866C32.6827 21.2222 30.2408 22.9939 28.9572 22.9939C27.6488 22.9939 25.6726 21.5129 23.5445 21.5567C20.7706 21.6463 18.1847 23.2233 16.8351 25.6485C13.9341 30.6711 16.098 38.0527 18.8769 42.1126C20.2673 44.1006 21.8922 46.3213 24.0184 46.2425C26.0989 46.1562 26.876 44.9158 29.3875 44.9158C31.8756 44.9158 32.6046 46.2425 34.774 46.1925C37.0065 46.1562 38.4131 44.1956 39.7547 42.1887C40.7537 40.7722 41.5224 39.2066 42.0323 37.55C39.4087 36.4403 37.6566 33.7999 37.6535 30.9512Z" fill="white"/>
<path d="M33.556 18.8166C34.7733 17.3553 35.373 15.477 35.2278 13.5807C33.368 13.776 31.6501 14.6649 30.4164 16.0701C29.21 17.4431 28.5821 19.2883 28.7008 21.1122C30.5613 21.1313 32.3902 20.2666 33.556 18.8166Z" fill="white"/>
</svg>
