<svg width="181" height="61" viewBox="0 0 181 61" fill="none" xmlns="http://www.w3.org/2000/svg">
<rect x="1.12222" y="1.12222" width="178.756" height="58.7556" rx="9.37778" fill="#2C2D35" stroke="#43454B" stroke-width="1.24444"/>
<path d="M64.3793 17.9828C64.3793 19.0086 64.0685 19.8301 63.4564 20.4427C62.7525 21.1691 61.8358 21.5345 60.7124 21.5345C59.6388 21.5345 58.7221 21.1629 57.9701 20.4305C57.2165 19.6873 56.8405 18.7752 56.8405 17.6834C56.8405 16.5916 57.2165 15.6795 57.9701 14.9425C58.7221 14.2039 59.6388 13.8323 60.7124 13.8323C61.2469 13.8323 61.7566 13.9413 62.2429 14.144C62.7277 14.3482 63.1223 14.6246 63.4082 14.9655L62.7587 15.6135C62.26 15.0315 61.581 14.7444 60.7124 14.7444C59.9293 14.7444 59.2504 15.0146 58.6739 15.5598C58.1037 16.1064 57.8178 16.8143 57.8178 17.6834C57.8178 18.5525 58.1037 19.2665 58.6739 19.8132C59.2504 20.3522 59.9293 20.6285 60.7124 20.6285C61.5437 20.6285 62.2429 20.3522 62.7945 19.807C63.158 19.4462 63.3647 18.9487 63.4191 18.313H60.7124V17.4254H64.3234C64.3669 17.6174 64.3793 17.8032 64.3793 17.9828Z" fill="white"/>
<path d="M70.1101 14.9064H66.7183V17.2404H69.7761V18.128H66.7183V20.462H70.1101V21.3664H65.7581V14.002H70.1101V14.9064Z" fill="white"/>
<path d="M74.1522 21.3664H73.192V14.9064H71.1115V14.002H76.2342V14.9064H74.1522V21.3664Z" fill="white"/>
<path d="M79.9393 21.3664V14.002H81.225V21.3664H79.9393Z" fill="white"/>
<path d="M85.1478 21.3662H84.1954V14.9062H82.1071V14.0018H87.2361V14.9062H85.1478V21.3662Z" fill="white"/>
<path d="M96.9376 20.4182C96.2027 21.1629 95.2922 21.5345 94.2061 21.5345C93.1138 21.5345 92.2033 21.1629 91.4684 20.4182C90.735 19.675 90.3699 18.7629 90.3699 17.6834C90.3699 16.6039 90.735 15.6918 91.4684 14.9486C92.2033 14.2039 93.1138 13.8323 94.2061 13.8323C95.2859 13.8323 96.1964 14.2039 96.9314 14.9548C97.671 15.7041 98.0361 16.6101 98.0361 17.6834C98.0361 18.7629 97.671 19.675 96.9376 20.4182ZM92.1785 19.8009C92.7316 20.3522 93.4044 20.6285 94.2061 20.6285C95.0016 20.6285 95.6806 20.3522 96.2275 19.8009C96.7791 19.2496 97.0588 18.5418 97.0588 17.6834C97.0588 16.825 96.7791 16.1171 96.2275 15.5659C95.6806 15.0146 95.0016 14.7382 94.2061 14.7382C93.4044 14.7382 92.7316 15.0146 92.1785 15.5659C91.6269 16.1171 91.3472 16.825 91.3472 17.6834C91.3472 18.5418 91.6269 19.2496 92.1785 19.8009Z" fill="white"/>
<path d="M99.382 21.3664V14.002H100.547L104.171 19.7295H104.213L104.171 18.3138V14.002H105.129V21.3664H104.129L100.334 15.3563H100.292L100.334 16.7783V21.3664H99.382Z" fill="white"/>
<path d="M90.1322 32.1205C87.2127 32.1205 84.8277 34.3163 84.8277 37.3459C84.8277 40.3509 87.2127 42.5698 90.1322 42.5698C93.0579 42.5698 95.4429 40.3509 95.4429 37.3459C95.4429 34.3163 93.0579 32.1205 90.1322 32.1205ZM90.1322 40.5122C88.5303 40.5122 87.1521 39.2054 87.1521 37.3459C87.1521 35.4618 88.5303 34.1781 90.1322 34.1781C91.7341 34.1781 93.1185 35.4618 93.1185 37.3459C93.1185 39.2054 91.7341 40.5122 90.1322 40.5122ZM78.5583 32.1205C75.6326 32.1205 73.2538 34.3163 73.2538 37.3459C73.2538 40.3509 75.6326 42.5698 78.5583 42.5698C81.4825 42.5698 83.8628 40.3509 83.8628 37.3459C83.8628 34.3163 81.4825 32.1205 78.5583 32.1205ZM78.5583 40.5122C76.9549 40.5122 75.572 39.2054 75.572 37.3459C75.572 35.4618 76.9549 34.1781 78.5583 34.1781C80.1602 34.1781 81.5384 35.4618 81.5384 37.3459C81.5384 39.2054 80.1602 40.5122 78.5583 40.5122ZM64.7859 33.722V35.9424H70.151C69.9941 37.1831 69.5745 38.0952 68.9313 38.731C68.1482 39.4987 66.9285 40.3509 64.7859 40.3509C61.4842 40.3509 58.8987 37.7175 58.8987 34.4545C58.8987 31.1915 61.4842 28.558 64.7859 28.558C66.5711 28.558 67.8701 29.2475 68.8287 30.1412L70.412 28.5765C69.0711 27.3112 67.2874 26.3392 64.7859 26.3392C60.2583 26.3392 56.4531 29.9799 56.4531 34.4545C56.4531 38.929 60.2583 42.5698 64.7859 42.5698C67.233 42.5698 69.0711 41.7775 70.5161 40.2911C71.9968 38.8277 72.4583 36.7701 72.4583 35.1086C72.4583 34.5927 72.4148 34.1182 72.3371 33.722H64.7859ZM121.103 35.4434C120.667 34.2748 119.319 32.1205 116.575 32.1205C113.856 32.1205 111.593 34.238 111.593 37.3459C111.593 40.2726 113.833 42.5698 116.837 42.5698C119.265 42.5698 120.667 41.1064 121.243 40.2542L119.441 39.0672C118.839 39.9363 118.02 40.5122 116.837 40.5122C115.66 40.5122 114.817 39.9793 114.276 38.929L121.347 36.0376L121.103 35.4434ZM113.894 37.1831C113.833 35.1685 115.477 34.1366 116.655 34.1366C117.578 34.1366 118.361 34.5927 118.622 35.2453L113.894 37.1831ZM108.146 42.2519H110.471V26.8966H108.146V42.2519ZM104.34 33.2844H104.262C103.74 32.6733 102.744 32.1205 101.482 32.1205C98.8348 32.1205 96.414 34.4176 96.414 37.3628C96.414 40.2911 98.8348 42.5698 101.482 42.5698C102.744 42.5698 103.74 42.0124 104.262 41.3828H104.34V42.1322C104.34 44.1299 103.26 45.2032 101.518 45.2032C100.098 45.2032 99.217 44.1898 98.8534 43.3376L96.832 44.1713C97.4146 45.5564 98.9575 47.2608 101.518 47.2608C104.243 47.2608 106.543 45.6762 106.543 41.8204V32.4383H104.34V33.2844ZM101.681 40.5122C100.079 40.5122 98.7384 39.187 98.7384 37.3628C98.7384 35.5217 100.079 34.1781 101.681 34.1781C103.26 34.1781 104.504 35.5217 104.504 37.3628C104.504 39.187 103.26 40.5122 101.681 40.5122ZM131.986 26.8966H126.426V42.2519H128.744V36.4338H131.986C134.56 36.4338 137.085 34.5927 137.085 31.6644C137.085 28.7377 134.554 26.8966 131.986 26.8966ZM132.046 34.2979H128.744V29.0325H132.046C133.777 29.0325 134.765 30.4529 134.765 31.6644C134.765 32.8529 133.777 34.2979 132.046 34.2979ZM146.376 32.0913C144.701 32.0913 142.96 32.8222 142.243 34.4422L144.301 35.2944C144.743 34.4422 145.558 34.1658 146.418 34.1658C147.621 34.1658 148.841 34.8798 148.859 36.1405V36.3017C148.44 36.0622 147.542 35.7075 146.437 35.7075C144.221 35.7075 141.964 36.9129 141.964 39.1624C141.964 41.2201 143.779 42.5452 145.819 42.5452C147.379 42.5452 148.239 41.8496 148.78 41.0404H148.859V42.2274H151.098V36.3371C151.098 33.6146 149.041 32.0913 146.376 32.0913ZM146.097 40.506C145.339 40.506 144.282 40.1344 144.282 39.2054C144.282 38.0169 145.6 37.5609 146.74 37.5609C147.761 37.5609 148.239 37.7835 148.859 38.0768C148.678 39.4987 147.439 40.506 146.097 40.506ZM159.255 32.4276L156.591 39.0841H156.512L153.757 32.4276H151.257L155.396 41.7299L153.034 46.9061H155.457L161.835 32.4276H159.255ZM138.359 42.2519H140.683V26.8966H138.359V42.2519Z" fill="white"/>
<path d="M18.4103 14.6597C18.0452 15.0375 17.8339 15.6256 17.8339 16.3872L17.8339 43.5539C17.8339 44.3155 18.0452 44.9036 18.4103 45.2813L18.5004 45.3643L33.9043 30.1471V29.7878L18.5004 14.5707L18.4103 14.6597Z" fill="url(#paint0_linear_1_1276)"/>
<path d="M39.0352 35.2234L33.9063 30.1484V29.7891L39.0415 24.7142L39.1564 24.7802L45.2378 28.1999C46.9733 29.1703 46.9733 30.7673 45.2378 31.7439L39.1564 35.1574L39.0352 35.2234Z" fill="url(#paint1_linear_1_1276)"/>
<path d="M39.1566 35.156L33.9065 29.9675L18.4125 45.2813C18.9889 45.8802 19.9289 45.9524 20.9979 45.3535L39.1566 35.156Z" fill="url(#paint2_linear_1_1276)"/>
<path d="M39.1566 24.7802L20.9979 14.5827C19.9289 13.99 18.9889 14.0622 18.4125 14.661L33.9065 29.9687L39.1566 24.7802Z" fill="url(#paint3_linear_1_1276)"/>
<defs>
<linearGradient id="paint0_linear_1_1276" x1="27.685" y1="43.8368" x2="14.5035" y2="30.8098" gradientUnits="userSpaceOnUse">
<stop stop-color="#00A0FF"/>
<stop offset="0.0066" stop-color="#00A1FF"/>
<stop offset="0.2601" stop-color="#00BEFF"/>
<stop offset="0.5122" stop-color="#00D2FF"/>
<stop offset="0.7604" stop-color="#00DFFF"/>
<stop offset="1" stop-color="#00E3FF"/>
</linearGradient>
<linearGradient id="paint1_linear_1_1276" x1="47.4978" y1="29.9671" x2="17.421" y2="29.9671" gradientUnits="userSpaceOnUse">
<stop stop-color="#FFE000"/>
<stop offset="0.4087" stop-color="#FFBD00"/>
<stop offset="0.7754" stop-color="#FFA500"/>
<stop offset="1" stop-color="#FF9C00"/>
</linearGradient>
<linearGradient id="paint2_linear_1_1276" x1="36.3017" y1="31.6477" x2="13.8812" y2="9.48999" gradientUnits="userSpaceOnUse">
<stop stop-color="#FF3A44"/>
<stop offset="1" stop-color="#C31162"/>
</linearGradient>
<linearGradient id="paint3_linear_1_1276" x1="14.5123" y1="40.7694" x2="24.5217" y2="30.8774" gradientUnits="userSpaceOnUse">
<stop stop-color="#32A071"/>
<stop offset="0.0685" stop-color="#2DA771"/>
<stop offset="0.4762" stop-color="#15CF74"/>
<stop offset="0.8009" stop-color="#06E775"/>
<stop offset="1" stop-color="#00F076"/>
</linearGradient>
</defs>
</svg>
