<svg width="56" height="56" viewBox="0 0 56 56" fill="none" xmlns="http://www.w3.org/2000/svg">
<mask id="mask0_1_1385" style="mask-type:luminance" maskUnits="userSpaceOnUse" x="0" y="0" width="56" height="56">
<path d="M56 0H0V56H56V0Z" fill="white"/>
</mask>
<g mask="url(#mask0_1_1385)">
<path d="M48.7682 0H7.23179C3.22649 0 0 3.22649 0 7.23179V48.7682C0 52.7735 3.22649 56 7.23179 56H48.7682C52.7735 56 56 52.7735 56 48.7682V7.23179C56 3.22649 52.7735 0 48.7682 0Z" fill="white"/>
<path d="M21.9544 15.2797L7.49084 44.1697H9.12263L22.7703 16.8744L21.9544 15.2797Z" fill="black"/>
<path d="M26.7024 13.017L11.1262 44.1693H12.758L27.5183 14.6117L26.7024 13.017Z" fill="black"/>
<path d="M38.7551 39.7556H24.106L21.8809 44.1688H14.7233L31.4491 10.7543L48.1749 44.1688H41.0544L38.7551 39.7556ZM26.9617 34.0073H35.8253L31.3749 25.1437L26.9617 34.0073Z" fill="black"/>
</g>
</svg>
