<svg width="56" height="56" viewBox="0 0 56 56" fill="none" xmlns="http://www.w3.org/2000/svg">
<g clip-path="url(#clip0_1_1371)">
<mask id="mask0_1_1371" style="mask-type:luminance" maskUnits="userSpaceOnUse" x="0" y="0" width="56" height="56">
<path d="M56 0H0V56H56V0Z" fill="white"/>
</mask>
<g mask="url(#mask0_1_1371)">
<path d="M48.7682 0H7.23179C3.22649 0 0 3.22649 0 7.23179V48.7682C0 52.7735 3.22649 56 7.23179 56H48.7682C52.7735 56 56 52.7735 56 48.7682V7.23179C56 3.22649 52.7735 0 48.7682 0Z" fill="white"/>
</g>
<path d="M8.38447 16C5.39292 16 4 17.734 4 20.434V23.566C4 26.368 4.49369 27.562 6.46847 28.828L7.99657 29.8C9.23081 30.562 9.38949 31.126 9.38949 32.764V35.524C9.38949 36.334 9.03098 36.826 8.34921 36.826C7.66744 36.826 7.30305 36.364 7.30305 35.53V31.192H4V35.56C4 38.29 5.36354 40 8.31982 40C11.3701 40 12.7631 38.2 12.7631 35.566V32.164C12.7631 29.566 12.1166 28.228 10.2358 27.004L8.70185 25.996C7.6263 25.294 7.3677 24.796 7.3677 22.996V20.464C7.3677 19.66 7.72621 19.162 8.37272 19.162C9.05449 19.162 9.44827 19.666 9.44827 20.464V24.76H12.7572V20.44C12.7631 17.764 11.3701 16 8.38447 16ZM13.8092 19.666H16.1484V39.67H19.522V19.66H21.8611V16.33H13.8092V19.666ZM43.9481 16.33V19.666H46.2872V39.67H49.6608V19.66H52V16.33H43.9481ZM23.9358 16.33L22.0551 39.664H25.3934L25.8577 33.424H28.3086L28.767 39.664H32.1817L30.301 16.33H23.9358ZM26.0928 30.262L26.8921 19.498H27.2918L28.0852 30.262H26.0987H26.0928ZM42.7138 37.9V31.828C42.7138 29.896 41.9968 28.828 40.2748 28.462V28.06C41.9909 27.79 42.8725 26.494 42.8725 24.394V20.434C42.8725 17.866 41.3797 16.33 38.4881 16.33H33.9038V39.664H37.2832V29.902H39.3285V37.9C39.3285 39.226 39.881 39.664 39.881 39.664H43.2546C43.2663 39.664 42.7138 39.238 42.7138 37.9ZM39.499 24.562C39.499 26.236 39.1404 26.728 38.0296 26.728H37.2891V19.504H38.1648C39.2051 19.504 39.499 19.936 39.499 21.664V24.562Z" fill="#D84925"/>
</g>
<defs>
<clipPath id="clip0_1_1371">
<rect width="56" height="56" fill="white"/>
</clipPath>
</defs>
</svg>
