<svg width="56" height="56" viewBox="0 0 56 56" fill="none" xmlns="http://www.w3.org/2000/svg">
<rect width="56" height="56" rx="8" fill="white"/>
<path d="M25.7969 39.5209C19.3793 39.5175 13.9998 34.3062 14 28.0929C14.0002 21.5785 19.247 16.2963 25.7206 16.2936C32.3205 16.2909 37.547 21.5 37.5319 28.0654C37.5171 34.3552 32.222 39.5243 25.7969 39.5209ZM19.0225 33.1369C19.0225 33.6759 18.9827 34.219 19.0398 34.7519C19.067 35.0072 19.2192 35.3878 19.4146 35.466C22.6505 36.7628 25.9643 37.3908 29.3524 36.1202C31.2664 35.4022 32.3396 33.9489 32.4348 31.8719C32.5317 29.7649 31.5033 28.3049 29.6383 27.4627C28.3824 26.8957 27.0362 26.5294 25.7451 26.0355C25.0471 25.7685 24.3329 25.4937 23.7107 25.0928C22.9748 24.6185 22.8642 23.8009 23.3041 23.1214C23.8802 22.2316 25.3447 22.0014 27.0662 22.3777C28.1901 22.6233 27.9342 23.4215 27.9478 24.1255C27.9584 24.6678 28.1143 24.9666 28.7291 24.9393C29.5112 24.9047 30.2965 24.9124 31.0796 24.9328C31.574 24.9457 31.7994 24.7528 31.795 24.2554C31.7863 23.2675 31.8375 22.2768 31.7752 21.2929C31.7572 21.0083 31.4991 20.6067 31.2437 20.4897C28.7245 19.3343 26.0919 18.8193 23.3301 19.3722C20.938 19.8511 19.4004 21.4232 19.1836 23.5255C18.9433 25.8539 19.9343 27.4302 22.3662 28.4737C23.2485 28.8521 24.187 29.0993 25.0846 29.4455C25.9516 29.7799 26.8276 30.1108 27.6454 30.5446C28.2648 30.873 28.5909 31.4653 28.4668 32.2075C28.343 32.9482 27.8389 33.4099 27.1533 33.523C26.3337 33.6582 25.4719 33.7385 24.6532 33.6398C22.9866 33.4388 22.9691 33.3837 22.9057 31.7067C22.8826 31.0955 22.6728 30.8172 22.0497 30.8687C21.8103 30.8885 21.5677 30.8696 21.3266 30.8696C19.0305 30.8701 19.0305 30.8703 19.0225 33.1369Z" fill="#FF4B00"/>
<path d="M38.4315 21.8512C39.9102 22.7084 41.4722 23.4519 42.8496 24.4474C45.3161 26.2297 45.4898 30.2799 43.1152 32.2616C41.6403 33.4923 39.8675 34.3711 38.1127 35.3322C40.0805 30.8628 40.2078 26.437 38.2205 21.9829C38.2908 21.939 38.3612 21.8951 38.4315 21.8512Z" fill="#FF4B00"/>
<path d="M25.2974 14.1944C23.1451 14.379 21.1082 14.9017 19.2068 15.9331C17.3255 16.9536 15.7708 18.3248 14.3983 20.1503C14.3072 19.7946 14.2214 19.6122 14.2198 19.4293C14.2092 18.2318 14.1618 17.0309 14.2292 15.837C14.417 12.513 17.847 10.2887 20.9313 11.5712C22.4667 12.2097 23.8789 13.1405 25.3467 13.9391C25.3302 14.0242 25.3138 14.1094 25.2974 14.1944Z" fill="#FF4B00"/>
<path d="M14.2551 35.7692C17.0261 39.3693 20.625 41.4044 25.1033 42.0801C23.4132 43.0325 21.9627 44.3683 20.0266 44.7239C17.1301 45.2556 14.423 43.128 14.2687 40.2071C14.1907 38.7315 14.2551 37.2487 14.2551 35.7692Z" fill="#FF4B00"/>
<path d="M19.0194 33.1474C19.0278 30.8806 19.0278 30.8806 21.3237 30.8803C21.5649 30.8803 21.8074 30.899 22.0468 30.8794C22.6698 30.8279 22.8797 31.106 22.9028 31.7174C22.9662 33.3944 22.9835 33.4497 24.6503 33.6505C25.469 33.7492 26.3308 33.6689 27.1504 33.5336C27.8362 33.4204 28.3401 32.9589 28.4639 32.2182C28.588 31.4758 28.2619 30.8837 27.6425 30.5553C26.8247 30.1217 25.9485 29.7906 25.0817 29.4562C24.1841 29.11 23.2456 28.8628 22.3633 28.4844C19.9314 27.4409 18.9404 25.8646 19.1807 23.5362C19.3977 21.4339 20.9353 19.8618 23.3272 19.3829C26.0892 18.83 28.7216 19.345 31.2408 20.5004C31.4962 20.6176 31.7541 21.0192 31.7723 21.3036C31.8348 22.2874 31.7836 23.278 31.7921 24.2661C31.7965 24.7635 31.5709 24.9565 31.0767 24.9435C30.2936 24.9231 29.5083 24.9154 28.7262 24.95C28.1114 24.9773 27.9555 24.6783 27.9449 24.1362C27.9313 23.4322 28.1872 22.634 27.0633 22.3884C25.3418 22.0123 23.8773 22.2423 23.3012 23.1321C22.8613 23.8116 22.9719 24.629 23.7078 25.1035C24.33 25.5045 25.0442 25.7792 25.7422 26.0462C27.0333 26.5401 28.3797 26.9064 29.6354 27.4734C31.5004 28.3155 32.5286 29.7756 32.4319 31.8826C32.3365 33.9596 31.2635 35.4129 29.3495 36.1309C25.9614 37.4015 22.6476 36.7735 19.4117 35.4767C19.2163 35.3983 19.0643 35.0177 19.0369 34.7626C18.98 34.2295 19.0198 33.6864 19.0194 33.1474Z" fill="#FEFEFE"/>
</svg>
