<svg width="116" height="60" viewBox="0 0 116 60" fill="none" xmlns="http://www.w3.org/2000/svg">
<path d="M21.1394 50.4941C9.9115 50.488 0.499804 41.198 0.500122 30.1215C0.50044 18.5085 9.67998 9.09199 21.0058 9.08716C32.5527 9.08233 41.6966 18.3685 41.6702 30.0726C41.6444 41.2852 32.3803 50.5002 21.1394 50.4941ZM9.28723 39.1134C9.28723 40.0743 9.21759 41.0425 9.31744 41.9924C9.36515 42.4475 9.63132 43.1261 9.97319 43.2655C15.6345 45.5772 21.4323 46.6968 27.3598 44.4316C30.7085 43.1518 32.5861 40.561 32.7527 36.8583C32.9222 33.1022 31.1229 30.4994 27.86 28.9981C25.6628 27.9874 23.3076 27.3343 21.0487 26.4539C19.8276 25.9779 18.5781 25.488 17.4895 24.7734C16.2019 23.9278 16.0085 22.4703 16.7781 21.259C17.7859 19.6727 20.3482 19.2623 23.3601 19.9331C25.3264 20.3709 24.8786 21.794 24.9025 23.049C24.9209 24.0156 25.1938 24.5484 26.2693 24.4998C27.6377 24.438 29.0116 24.4518 30.3816 24.4882C31.2466 24.511 31.6409 24.1672 31.6333 23.2804C31.618 21.5194 31.7077 19.7532 31.5986 17.9993C31.5671 17.492 31.1155 16.7761 30.6687 16.5675C26.2613 14.5077 21.6555 13.5897 16.8236 14.5753C12.6385 15.429 9.94839 18.2317 9.569 21.9794C9.14858 26.1301 10.8824 28.9402 15.1371 30.8004C16.6808 31.475 18.3227 31.9157 19.8931 32.5328C21.41 33.1289 22.9425 33.7189 24.3733 34.4921C25.4571 35.0776 26.0276 36.1334 25.8104 37.4567C25.5938 38.7771 24.712 39.6001 23.5124 39.8016C22.0785 40.0427 20.5708 40.186 19.1384 40.0099C16.2225 39.6516 16.192 39.5535 16.081 36.5638C16.0406 35.4742 15.6736 34.9782 14.5835 35.0699C14.1646 35.1053 13.7401 35.0715 13.3184 35.0715C9.30122 35.0725 9.30122 35.0728 9.28723 39.1134Z" fill="#FF4B00"/>
<path d="M43.2498 18.9795C45.8369 20.5075 48.5696 21.833 50.9795 23.6076C55.2947 26.7849 55.5987 34.0052 51.4441 37.5379C48.8638 39.7319 45.7621 41.2985 42.692 43.0119C46.1349 35.0442 46.3575 27.1545 42.8806 19.2141C43.0037 19.1359 43.1267 19.0577 43.2498 18.9795Z" fill="#FF4B00"/>
<path d="M20.2726 5.33257C16.507 5.66154 12.9433 6.5934 9.61685 8.43202C6.32538 10.2513 3.60539 12.6957 1.20405 15.95C1.04472 15.3159 0.894619 14.9908 0.891757 14.6647C0.873312 12.53 0.790311 10.3891 0.908295 8.26078C1.23681 2.33516 7.23777 -1.63016 12.6339 0.656199C15.3202 1.79439 17.7908 3.45372 20.3588 4.87742C20.3299 5.02903 20.3012 5.18096 20.2726 5.33257Z" fill="#FF4B00"/>
<path d="M0.953198 43.7888C5.80136 50.2066 12.0978 53.8346 19.9327 55.0391C16.9758 56.737 14.438 59.1184 11.0508 59.7522C5.98326 60.7001 1.24704 56.9073 0.977048 51.7002C0.840619 49.0697 0.953198 46.4264 0.953198 43.7888Z" fill="#FF4B00"/>
<path d="M9.28665 39.1177C9.30128 35.0768 9.30128 35.0768 13.3181 35.0761C13.7402 35.0761 14.1644 35.1096 14.5832 35.0745C15.6731 34.9828 16.0404 35.4785 16.0807 36.5684C16.1917 39.5581 16.2219 39.6566 19.1382 40.0145C20.5705 40.1906 22.0782 40.0473 23.5122 39.8062C24.712 39.6044 25.5936 38.7817 25.8101 37.4613C26.0273 36.1377 25.4568 35.0822 24.373 34.4967C22.9423 33.7239 21.4094 33.1335 19.8928 32.5374C18.3224 31.9203 16.6805 31.4797 15.1369 30.805C10.8821 28.9448 9.14831 26.1347 9.56873 21.984C9.94844 18.2363 12.6385 15.4336 16.8233 14.58C21.6556 13.5943 26.2611 14.5124 30.6685 16.5721C31.1153 16.781 31.5665 17.4969 31.5984 18.0039C31.7077 19.7578 31.6181 21.5237 31.633 23.2851C31.6406 24.1719 31.246 24.516 30.3813 24.4928C29.0113 24.4564 27.6375 24.4426 26.269 24.5044C25.1935 24.553 24.9206 24.0199 24.9022 23.0536C24.8784 21.7986 25.3261 20.3755 23.3598 19.9378C20.3479 19.2673 17.7856 19.6774 16.7778 21.2636C16.0082 22.4749 16.2016 23.9321 17.4892 24.778C18.5778 25.4929 19.8273 25.9825 21.0485 26.4586C23.3074 27.3389 25.6629 27.992 27.8597 29.0028C31.1226 30.504 32.9216 33.1068 32.7524 36.8629C32.5855 40.5656 30.7082 43.1564 27.3595 44.4363C21.432 46.7014 15.6343 45.5819 9.97293 43.2701C9.63106 43.1304 9.3652 42.4518 9.31718 41.997C9.21764 41.0468 9.28729 40.0786 9.28665 39.1177Z" fill="white"/>
<path d="M86.194 38.6339C86.2958 38.2729 86.3871 37.8993 86.5064 37.5349C86.8472 36.4927 87.2081 35.4569 87.5452 34.4131C88.3033 32.0639 89.0399 29.7077 89.8079 27.3619C90.4722 25.3337 91.1572 23.3121 91.8669 21.3C91.9359 21.105 92.2404 20.8728 92.4414 20.8674C93.8192 20.8291 95.1984 20.8563 96.5773 20.8414C97.0309 20.8364 97.1677 21.1176 97.2828 21.4775C98.0178 23.7727 98.7529 26.0679 99.5016 28.3586C100.298 30.7963 101.113 33.2284 101.914 35.665C102.177 36.4658 102.426 37.2717 102.674 38.0771C102.852 38.6553 102.79 38.7588 102.218 38.7645C101.189 38.7752 100.159 38.7557 99.1301 38.7729C98.7385 38.7795 98.5026 38.6162 98.3867 38.256C98.2068 37.6966 98.0133 37.1402 97.8656 36.572C97.7493 36.1244 97.5252 35.9259 97.0472 35.9317C95.3385 35.9524 93.6294 35.9505 91.9207 35.9324C91.478 35.9278 91.2459 36.0792 91.1395 36.5245C90.994 37.1341 90.8149 37.7384 90.599 38.3258C90.5335 38.5036 90.3018 38.7385 90.1416 38.7423C88.9002 38.7722 87.6573 38.7526 86.4151 38.7434C86.3636 38.7431 86.3129 38.6944 86.194 38.6339ZM96.408 31.8796C95.774 29.7916 95.1768 27.8252 94.58 25.8587C94.5323 25.869 94.4842 25.879 94.4364 25.8894C93.8358 27.8616 93.2352 29.8338 92.6119 31.8796C93.8828 31.8796 95.0674 31.8796 96.408 31.8796Z" fill="#FF4B00"/>
<path d="M60.4723 29.8076C60.4723 27.0771 60.4708 24.3469 60.4734 21.6164C60.4742 20.8841 60.5132 20.8439 61.2297 20.8431C63.2505 20.8405 65.2716 20.8703 67.292 20.837C69.59 20.7991 71.9413 22.6579 72.612 24.8014C73.7103 28.3116 71.9932 31.9357 68.6447 32.8504C67.5825 33.1405 66.4149 33.0581 65.294 33.1021C64.3427 33.1397 64.3286 33.124 64.3275 34.108C64.326 35.4437 64.3142 36.7795 64.3328 38.1149C64.3396 38.5969 64.1616 38.7854 63.6833 38.772C62.8483 38.749 62.0117 38.7429 61.1771 38.7743C60.645 38.7942 60.4625 38.5958 60.4662 38.0578C60.4848 35.3081 60.475 32.558 60.475 29.808C60.4738 29.8076 60.4731 29.8076 60.4723 29.8076ZM64.4389 26.887C64.4389 27.4369 64.4472 27.9867 64.4362 28.5362C64.4282 28.9309 64.5945 29.111 64.9914 29.1052C65.7488 29.0941 66.5153 29.1715 67.2602 29.0738C67.6832 29.0182 68.1884 28.7868 68.4512 28.4638C69.056 27.7204 69.1579 26.8276 68.7686 25.916C68.4141 25.0864 67.7404 24.7048 66.8925 24.6408C66.2744 24.5941 65.6499 24.6351 65.0289 24.6259C64.6093 24.6197 64.4305 24.8228 64.4373 25.2382C64.446 25.7873 64.4392 26.3371 64.4389 26.887Z" fill="#FF4B00"/>
<path d="M100.199 20.8569C100.437 20.8082 100.601 20.7469 100.764 20.7458C101.871 20.7369 102.978 20.7435 104.086 20.7392C104.775 20.7366 104.906 21.3316 105.121 21.7788C105.978 23.5594 106.798 25.3588 107.635 27.1494C107.673 27.2307 107.749 27.2943 107.896 27.4782C108.326 26.6042 108.723 25.8125 109.106 25.0132C109.697 23.7782 110.285 22.5413 110.861 21.2991C111.037 20.9182 111.292 20.7285 111.72 20.7343C112.788 20.7484 113.856 20.7293 114.925 20.7423C115.563 20.75 115.623 20.8829 115.335 21.4267C114.128 23.7108 112.93 25.9999 111.73 28.2882C111.166 29.3626 110.593 30.4321 110.055 31.5196C109.914 31.8039 109.823 32.1453 109.82 32.4618C109.798 34.3271 109.795 36.1928 109.817 38.0577C109.823 38.5926 109.643 38.7973 109.108 38.7777C108.254 38.7467 107.398 38.7471 106.545 38.7777C106.016 38.7965 105.823 38.6045 105.831 38.0635C105.855 36.3947 105.793 34.7237 105.857 33.0573C105.894 32.1054 105.62 31.2977 105.187 30.4896C104.151 28.5599 103.145 26.6141 102.129 24.6737C101.575 23.6165 101.024 22.5574 100.477 21.4972C100.383 21.3125 100.311 21.1155 100.199 20.8569Z" fill="#FF4B00"/>
<path d="M74.3552 29.7903C74.3552 27.0621 74.3533 24.3334 74.3563 21.6052C74.3571 20.8837 74.3972 20.8469 75.1224 20.8435C75.9185 20.8396 76.7145 20.8419 77.5105 20.8427C78.4262 20.8438 78.4285 20.8442 78.4285 21.7478C78.4293 25.752 78.4285 29.7562 78.4289 33.7604C78.4289 34.7609 78.4296 34.7612 79.426 34.7616C80.8821 34.762 82.3386 34.7781 83.7947 34.7536C84.3219 34.7448 84.5279 34.926 84.5082 35.4682C84.4772 36.3307 84.4863 37.1956 84.5048 38.0589C84.5154 38.5501 84.3401 38.7735 83.8288 38.7716C80.8776 38.7597 77.926 38.7566 74.9747 38.7743C74.4165 38.7777 74.3484 38.4888 74.3499 38.0344C74.3601 35.2862 74.3552 32.5384 74.3552 29.7903Z" fill="#FF4B00"/>
</svg>
