<svg width="168" height="56" viewBox="0 0 168 56" fill="none" xmlns="http://www.w3.org/2000/svg">
<rect width="168" height="56" rx="6.22222" fill="#2C2C2C"/>
<rect x="0.622222" y="0.622222" width="166.756" height="54.7556" rx="5.6" stroke="white" stroke-opacity="0.2" stroke-width="1.24444"/>
<path opacity="0.1" fill-rule="evenodd" clip-rule="evenodd" d="M26.2232 12.4443C19.7777 12.4443 17.4222 14.8014 17.4222 21.2422V35.0113C17.4222 41.4505 19.7793 43.8091 26.2232 43.8091H39.9829C46.4253 43.8091 48.787 41.4521 48.787 35.0113V21.2422C48.787 14.803 46.43 12.4443 39.986 12.4443H26.2232Z" fill="white"/>
<path d="M35.4162 36.2141H31.9112C31.6022 36.2141 31.3517 35.9638 31.3517 35.6548V33.3306C31.3517 33.0218 31.6022 32.7712 31.9112 32.7712H35.4162C35.7252 32.7712 35.9757 33.0217 35.9757 33.3306V35.6548C35.9757 35.9638 35.7252 36.2141 35.4162 36.2141Z" fill="white"/>
<path d="M35.4182 32.7712H33.6656V36.2141H35.4182C35.7271 36.2141 35.9776 35.9638 35.9776 35.6548V33.3306C35.9776 33.0217 35.7271 32.7712 35.4182 32.7712Z" fill="white"/>
<path d="M37.6194 36.2134H29.7139C29.405 36.2134 29.1545 35.963 29.1545 35.6541C29.1545 35.3452 29.4049 35.0947 29.7139 35.0947H37.6194C37.9284 35.0947 38.1787 35.3452 38.1787 35.6541C38.1787 35.963 37.9284 36.2134 37.6194 36.2134Z" fill="white"/>
<path d="M37.6184 35.0947H33.6656V36.2134H37.6184C37.9274 36.2134 38.1778 35.963 38.1778 35.6541C38.1778 35.3452 37.9274 35.0947 37.6184 35.0947Z" fill="white"/>
<path d="M42.6288 33.89H24.7044C24.3956 33.89 24.1451 33.6396 24.1451 33.3307V31.0934C24.1451 30.7844 24.3956 30.5339 24.7044 30.5339H42.6288C42.9376 30.5339 43.188 30.7844 43.188 31.0934V33.3307C43.188 33.6396 42.9376 33.89 42.6288 33.89Z" fill="white"/>
<path d="M42.6278 30.5339H33.6656V33.89H42.6278C42.9366 33.89 43.1871 33.6396 43.1871 33.3307V31.0934C43.1871 30.7844 42.9366 30.5339 42.6278 30.5339Z" fill="white"/>
<path d="M42.6288 31.6522H24.7044C24.3956 31.6522 24.1451 31.4018 24.1451 31.0929V21.7209C24.1451 21.4121 24.3956 21.1616 24.7044 21.1616H42.6288C42.9376 21.1616 43.188 21.4121 43.188 21.7209V31.0929C43.188 31.4018 42.9376 31.6522 42.6288 31.6522Z" fill="#555555"/>
<path d="M65.6472 21.407H64.3056V13.8984H59.9618V21.407H58.608V12.7251H65.6472V21.407ZM70.5087 14.9753C71.3149 14.9753 71.9607 15.2701 72.446 15.8598C72.9314 16.4493 73.174 17.2435 73.174 18.2423C73.174 19.241 72.9333 20.0372 72.452 20.6308C71.9708 21.2205 71.3309 21.5153 70.5328 21.5153C70.0835 21.5153 69.6844 21.413 69.3354 21.2085C68.9906 21.0038 68.7258 20.7231 68.5412 20.3661H68.5112V23.5007H67.2116V15.0776H68.4691V16.1666H68.4932C68.6817 15.7976 68.9525 15.5067 69.3054 15.2942C69.6584 15.0816 70.0594 14.9753 70.5087 14.9753ZM70.1657 20.4143C70.6792 20.4143 71.0863 20.2197 71.3871 19.8307C71.6879 19.4376 71.8384 18.9081 71.8384 18.2423C71.8384 17.5805 71.6879 17.053 71.3871 16.6599C71.0863 16.2668 70.6792 16.0703 70.1657 16.0703C69.6684 16.0703 69.2673 16.2689 68.9625 16.666C68.6576 17.0631 68.5052 17.5884 68.5052 18.2423C68.5052 18.9 68.6556 19.4275 68.9564 19.8246C69.2613 20.2177 69.6644 20.4143 70.1657 20.4143ZM75.5747 21.407H74.2931V15.0776H75.5747V19.5118H75.6228L78.5469 15.0776H79.8283V21.407H78.5469V16.9608H78.4987L75.5747 21.407ZM83.1374 18.525C83.1133 18.9021 83.0753 19.235 83.0232 19.5237C82.971 19.8126 82.8947 20.0834 82.7945 20.336C82.6941 20.5848 82.5718 20.7913 82.4275 20.9558C82.2831 21.1162 82.1025 21.2425 81.8859 21.3347C81.6734 21.423 81.4266 21.4671 81.146 21.4671C80.9694 21.4671 80.8231 21.4451 80.7068 21.4009V20.2578C80.8151 20.2899 80.9293 20.306 81.0496 20.306C81.3385 20.306 81.5511 20.1495 81.6875 19.8366C81.8238 19.5237 81.912 19.0685 81.9521 18.4709L82.1687 15.0776H86.5548V21.407H85.2613V16.1064H83.3119L83.1374 18.525ZM92.8602 20.6488C92.3146 21.2345 91.5866 21.5273 90.6762 21.5273C89.7657 21.5273 89.0377 21.2345 88.4922 20.6488C87.9466 20.0593 87.6739 19.257 87.6739 18.2423C87.6739 17.2315 87.9466 16.4333 88.4922 15.8477C89.0377 15.258 89.7657 14.9633 90.6762 14.9633C91.5866 14.9633 92.3146 15.258 92.8602 15.8477C93.4057 16.4333 93.6784 17.2315 93.6784 18.2423C93.6784 19.257 93.4057 20.0593 92.8602 20.6488ZM90.6762 20.4564C91.1936 20.4564 91.6026 20.2618 91.9036 19.8728C92.2044 19.4837 92.3547 18.9402 92.3547 18.2423C92.3547 17.5483 92.2024 17.0068 91.8975 16.6178C91.5967 16.2288 91.1896 16.0342 90.6762 16.0342C90.1628 16.0342 89.7536 16.2288 89.4487 16.6178C89.1479 17.0068 88.9976 17.5483 88.9976 18.2423C88.9976 18.9402 89.1479 19.4837 89.4487 19.8728C89.7536 20.2618 90.1628 20.4564 90.6762 20.4564ZM100.441 18.0497L103.142 21.407H101.53L99.2015 18.4889H99.1535V21.407H97.872V18.4889H97.8298L95.5014 21.407H93.913L96.5965 18.0738L93.9852 15.0776H95.5315L97.8298 17.785H97.872V15.0776H99.1535V17.785H99.2015L101.5 15.0776H103.034L100.441 18.0497ZM107.504 16.4674C107.22 16.1626 106.853 16.0101 106.403 16.0101C105.954 16.0101 105.581 16.1646 105.284 16.4734C104.987 16.7782 104.823 17.1733 104.791 17.6587H107.956C107.94 17.1694 107.789 16.7723 107.504 16.4674ZM107.95 19.5478H109.183C109.091 20.1294 108.794 20.6048 108.293 20.9738C107.791 21.3428 107.18 21.5273 106.458 21.5273C105.531 21.5273 104.801 21.2365 104.268 20.6549C103.738 20.0693 103.473 19.2751 103.473 18.2724C103.473 17.2776 103.738 16.4774 104.268 15.8718C104.801 15.2661 105.513 14.9633 106.403 14.9633C107.278 14.9633 107.972 15.2501 108.485 15.8236C108.999 16.3932 109.255 17.1593 109.255 18.122V18.5671H104.785V18.6454C104.785 19.1989 104.939 19.6422 105.248 19.9751C105.557 20.308 105.97 20.4744 106.488 20.4744C106.853 20.4744 107.166 20.3902 107.426 20.2217C107.687 20.0533 107.861 19.8287 107.95 19.5478ZM114.526 21.407V18.6514H111.662V21.407H110.368V15.0776H111.662V17.6286H114.526V15.0776H115.82V21.407H114.526ZM118.509 21.407H117.228V15.0776H118.509V19.5118H118.557L121.481 15.0776H122.762V21.407H121.481V16.9608H121.433L118.509 21.407ZM126.559 18.2362H127.708V16.1004H126.559C126.186 16.1004 125.889 16.2007 125.668 16.4012C125.452 16.5978 125.343 16.8665 125.343 17.2075C125.343 17.5123 125.454 17.7609 125.675 17.9535C125.899 18.142 126.193 18.2362 126.559 18.2362ZM127.708 21.407V19.235H126.746L125.211 21.407H123.744L125.47 19.0124C125.028 18.88 124.681 18.6574 124.429 18.3445C124.176 18.0276 124.049 17.6506 124.049 17.2134C124.049 16.5556 124.27 16.0362 124.711 15.6551C125.157 15.2701 125.751 15.0776 126.492 15.0776H128.984V21.407H127.708ZM137.094 20.3781V16.1064H134.892L134.717 18.525C134.665 19.3353 134.501 19.937 134.224 20.33V20.3781H137.094ZM133.496 23.0675H132.298V20.3781H132.811C133.227 20.1174 133.473 19.4816 133.544 18.4709L133.773 15.0776H138.387V20.3781H139.367V23.0675H138.164V21.407H133.496V23.0675ZM142.184 18.525C142.159 18.9021 142.121 19.235 142.07 19.5237C142.017 19.8126 141.941 20.0834 141.841 20.336C141.741 20.5848 141.618 20.7913 141.474 20.9558C141.33 21.1162 141.149 21.2425 140.933 21.3347C140.72 21.423 140.474 21.4671 140.193 21.4671C140.017 21.4671 139.869 21.4451 139.753 21.4009V20.2578C139.861 20.2899 139.977 20.306 140.096 20.306C140.385 20.306 140.598 20.1495 140.734 19.8366C140.87 19.5237 140.959 19.0685 140.999 18.4709L141.215 15.0776H145.601V21.407H144.308V16.1064H142.359L142.184 18.525ZM149.398 18.2362H150.547V16.1004H149.398C149.025 16.1004 148.728 16.2007 148.508 16.4012C148.291 16.5978 148.183 16.8665 148.183 17.2075C148.183 17.5123 148.293 17.7609 148.513 17.9535C148.738 18.142 149.033 18.2362 149.398 18.2362ZM150.547 21.407V19.235H149.584L148.051 21.407H146.581L148.309 19.0124C147.868 18.88 147.521 18.6574 147.269 18.3445C147.015 18.0276 146.888 17.6506 146.888 17.2134C146.888 16.5556 147.109 16.0362 147.551 15.6551C147.996 15.2701 148.589 15.0776 149.332 15.0776H151.822V21.407H150.547Z" fill="white"/>
<path d="M57.2979 38.6912H59.7592C59.838 39.341 60.1727 39.8662 60.7634 40.2665C61.3542 40.6604 62.086 40.8571 62.959 40.8571C63.8122 40.8571 64.5079 40.6669 65.0461 40.2862C65.5909 39.9055 65.8632 39.4197 65.8632 38.829C65.8632 38.3172 65.6665 37.9036 65.2726 37.5886C64.8787 37.267 64.2355 37.0012 63.3428 36.7911L61.5018 36.3579C60.1957 36.0559 59.2243 35.5868 58.5876 34.95C57.9575 34.3133 57.6425 33.4864 57.6425 32.4691C57.6425 31.2154 58.1347 30.1981 59.1193 29.417C60.1037 28.636 61.3738 28.2454 62.9294 28.2454C64.4915 28.2454 65.7484 28.6327 66.7001 29.4073C67.6584 30.1751 68.154 31.1858 68.1868 32.4395H65.7648C65.7058 31.7766 65.4202 31.2581 64.9083 30.884C64.3964 30.5033 63.7301 30.3129 62.9097 30.3129C62.109 30.3129 61.4592 30.4934 60.9603 30.8543C60.4681 31.2154 60.2219 31.6913 60.2219 32.282C60.2219 32.7545 60.4122 33.1385 60.793 33.4339C61.1803 33.7292 61.8103 33.9819 62.6833 34.1919L64.3176 34.566C65.7551 34.8943 66.7986 35.3734 67.4484 36.0034C68.0982 36.6335 68.423 37.477 68.423 38.5337C68.423 39.8793 67.9177 40.9491 66.9069 41.7432C65.9027 42.5309 64.5407 42.9247 62.8211 42.9247C61.1803 42.9247 59.8609 42.5472 58.8632 41.7925C57.8722 41.0311 57.3503 39.9974 57.2979 38.6912ZM70.0967 42.6884V32.2524H72.4498V34.064H72.499C72.7286 33.447 73.1062 32.958 73.6311 32.597C74.1563 32.2359 74.77 32.0555 75.4723 32.0555C76.2074 32.0555 76.8276 32.2393 77.333 32.6069C77.8449 32.9679 78.196 33.4831 78.3864 34.1526H78.4456C78.6949 33.5094 79.1085 33.0007 79.686 32.6266C80.2702 32.2458 80.9396 32.0555 81.6945 32.0555C82.7249 32.0555 83.5486 32.3739 84.1655 33.0105C84.789 33.6471 85.101 34.4872 85.101 35.531V42.6884H82.6494V36.1315C82.6494 35.4883 82.4853 34.9927 82.1571 34.6448C81.8355 34.297 81.3762 34.123 80.7789 34.123C80.1881 34.123 79.7089 34.3199 79.3415 34.7138C78.9738 35.1075 78.7901 35.6162 78.7901 36.2398V42.6884H76.4075V36.0034C76.4075 35.4259 76.2402 34.9697 75.9054 34.635C75.5772 34.2937 75.1276 34.123 74.5566 34.123C73.9659 34.123 73.4835 34.3298 73.1094 34.7433C72.7352 35.1502 72.5482 35.6687 72.5482 36.2989V42.6884H70.0967ZM90.88 41.0049C91.5823 41.0049 92.173 40.7981 92.6522 40.3846C93.138 39.9646 93.3808 39.4427 93.3808 38.8192V38.0218L90.9687 38.1694C90.378 38.2088 89.9185 38.3565 89.5904 38.6124C89.2687 38.8619 89.1079 39.1934 89.1079 39.6068C89.1079 40.0335 89.2687 40.3748 89.5904 40.6308C89.9185 40.8801 90.3484 41.0049 90.88 41.0049ZM90.1416 42.8558C89.1243 42.8558 88.2875 42.5637 87.6312 41.9795C86.9813 41.3954 86.6564 40.6373 86.6564 39.7052C86.6564 38.7798 86.9977 38.048 87.6803 37.5098C88.3695 36.9716 89.3507 36.6631 90.624 36.5843L93.3808 36.4269V35.6786C93.3808 35.1338 93.2069 34.7105 92.859 34.4085C92.5177 34.1067 92.0418 33.9557 91.4313 33.9557C90.8604 33.9557 90.3944 34.0837 90.0333 34.3396C89.6724 34.5957 89.4525 34.9434 89.3737 35.3832H87.0994C87.1519 34.3922 87.5754 33.5881 88.3695 32.9711C89.1703 32.3476 90.2237 32.0358 91.5298 32.0358C92.8228 32.0358 93.8566 32.3508 94.6311 32.981C95.4121 33.6111 95.8027 34.4512 95.8027 35.5014V42.6884H93.4398V41.0245H93.3907C93.0952 41.5825 92.6489 42.0287 92.0516 42.3636C91.4543 42.6916 90.8177 42.8558 90.1416 42.8558ZM97.7816 42.6884V32.2524H100.135V34.0739H100.184C100.361 33.4371 100.666 32.9449 101.099 32.597C101.539 32.2491 102.068 32.0752 102.684 32.0752C102.901 32.0752 103.157 32.108 103.452 32.1737V34.3888C103.21 34.297 102.878 34.251 102.458 34.251C101.762 34.251 101.218 34.461 100.824 34.8812C100.43 35.3012 100.233 35.8787 100.233 36.6138V42.6884H97.7816ZM105.392 29.8108H107.843V32.2524H109.812V34.1427H107.843V39.5675C107.843 39.9941 107.945 40.3091 108.149 40.5125C108.352 40.7161 108.67 40.8178 109.104 40.8178C109.392 40.8178 109.625 40.8014 109.803 40.7686V42.6392C109.507 42.7047 109.084 42.7375 108.533 42.7375C107.404 42.7375 106.596 42.521 106.111 42.0879C105.632 41.6546 105.392 40.9294 105.392 39.9121V34.1427H103.896V32.2524H105.392V29.8108ZM121.774 42.6884H119.244V30.6279H114.992V28.4817H126.017V30.6279H121.774V42.6884ZM134.633 42.6884H131.718L126.776 28.4817H129.572L133.176 39.9613H133.235L136.837 28.4817H139.574L134.633 42.6884Z" fill="white"/>
</svg>
